<?xml version="1.0" ?><svg viewBox="0 0 512 512" xmlns="http://www.w3.org/2000/svg"><title/><g id="Element"><path d="M449,30.48V251.94H430.25V36.57c0-9-6.71-16.25-15-16.25H153.73L172.31,0H420.87C436.4,0,449,13.65,449,30.48Z"/><polygon points="81.48 99.35 81.48 251.94 62.73 251.94 62.73 119.87 81.48 99.35"/><path d="M172.31,0V88c0,17.59-13.05,31.85-29.12,31.85H62.73L81.48,99.35l72.25-79Z"/><path d="M265.09,309a37.52,37.52,0,0,0-10.9-1.39H245v46.77h10.57c2.32,0,4.14-.06,5.46-.19a16.85,16.85,0,0,0,4.08-.94,11.08,11.08,0,0,0,3.67-2.12q7-5.91,7-20.39,0-10.2-3.08-15.28T265.09,309Z"/><path d="M190.08,307h-9.39v21.06h9.39a28,28,0,0,0,8.25-1,9.67,9.67,0,0,0,5.06-3.38,10.17,10.17,0,0,0,1.74-6.16,10.45,10.45,0,0,0-2.68-7.42Q199.44,307,190.08,307Z"/><path d="M490.31,272.25H21.69c-12,0-21.69,9.1-21.69,20.32v77.21C0,381,9.71,390.1,21.69,390.1H490.31c12,0,21.69-9.1,21.69-20.32V292.57C512,281.35,502.29,272.25,490.31,272.25ZM212.79,333.17q-6.49,5.41-19.32,5.42H180.69V358.1q0,4.18-2,6.34a6.45,6.45,0,0,1-5,2.16,6.53,6.53,0,0,1-5.08-2.13q-1.92-2.14-1.92-6.28V305.08q0-4.6,2.11-6.58t6.72-2h17.91a47.17,47.17,0,0,1,12.22,1.22,18.42,18.42,0,0,1,7.31,3.9,17.52,17.52,0,0,1,4.67,6.68,23.38,23.38,0,0,1,1.6,8.88Q219.27,327.74,212.79,333.17Zm76,8.95a33.24,33.24,0,0,1-3.34,9.23,28.46,28.46,0,0,1-5.78,7.36,23.91,23.91,0,0,1-6.06,4,27.24,27.24,0,0,1-7.07,2.12,53.69,53.69,0,0,1-8.54.61H239.86a11.4,11.4,0,0,1-5.74-1.15,5.37,5.37,0,0,1-2.51-3.24,20.73,20.73,0,0,1-.59-5.43V305.08q0-4.5,2-6.53t6.53-2h18.19a49,49,0,0,1,12.18,1.32,22.35,22.35,0,0,1,9.21,4.93q10.75,9.21,10.76,28A55,55,0,0,1,288.83,342.12Zm59.47-36.31a7.13,7.13,0,0,1-4.95,1.48h-27.5v17.63h23a6.92,6.92,0,0,1,4.78,1.43,5,5,0,0,1,1.57,3.83,4.81,4.81,0,0,1-1.6,3.81,7,7,0,0,1-4.75,1.41h-23v22.7q0,4.32-2,6.41a7.07,7.07,0,0,1-10.06,0q-1.95-2.12-1.95-6.39v-53a11.55,11.55,0,0,1,.9-4.91,5.5,5.5,0,0,1,2.79-2.77,11.76,11.76,0,0,1,4.87-.87h32.9A7.13,7.13,0,0,1,348.3,298a5.48,5.48,0,0,1,0,7.8Z"/><path d="M439.76,400.25c-5.18,0-9.38,4.55-9.38,10.16v65c0,9-6.71,16.25-15,16.25H96.62c-8.29,0-15-7.27-15-16.25v-65c0-5.61-4.2-10.16-9.38-10.16s-9.37,4.55-9.37,10.16v71.11C62.87,498.35,75.47,512,91,512H421c15.52,0,28.12-13.65,28.12-30.48V410.41C449.13,404.8,444.94,400.25,439.76,400.25Z"/></g></svg>